<svg width="161" height="108" viewBox="0 0 161 108" fill="none" xmlns="http://www.w3.org/2000/svg">
<path d="M65.5391 8.13501C65.5391 8.13501 117.376 -10.1688 139.942 8.13501C167.764 30.7013 167.764 77.2987 139.942 99.865C117.376 118.169 65.5391 99.865 65.5391 99.865V8.13501Z" fill="#613EEA"/>
<path d="M14.4224 46.0529C13.3594 46.0529 12.4158 46.2619 11.5917 46.6799C10.7795 47.086 10.0927 47.6773 9.53132 48.4536C8.98189 49.23 8.56385 50.1676 8.2772 51.2664C7.99054 52.3653 7.84721 53.6015 7.84721 54.9751C7.84721 56.8264 8.07415 58.409 8.52802 59.7228C8.99384 61.0247 9.71048 62.022 10.6779 62.7148C11.6454 63.3956 12.8936 63.736 14.4224 63.736C15.4854 63.736 16.5484 63.6165 17.6114 63.3777C18.6864 63.1388 19.8509 62.7984 21.1051 62.3565V67.0146C19.9465 67.4924 18.8058 67.8328 17.6831 68.0358C16.5604 68.2508 15.3003 68.3583 13.9028 68.3583C11.2035 68.3583 8.98189 67.8029 7.23807 66.6921C5.50619 65.5694 4.22221 64.0047 3.38613 61.9981C2.55005 59.9796 2.13201 57.6266 2.13201 54.9392C2.13201 52.9565 2.40075 51.141 2.93823 49.4928C3.47571 47.8445 4.26401 46.4172 5.30314 45.2108C6.34227 44.0045 7.62625 43.0729 9.15508 42.4159C10.6839 41.759 12.4397 41.4306 14.4224 41.4306C15.7243 41.4306 17.0262 41.5978 18.3281 41.9322C19.6419 42.2547 20.896 42.7026 22.0904 43.2759L20.2988 47.7907C19.3194 47.3249 18.3341 46.9188 17.3427 46.5725C16.3513 46.2261 15.3779 46.0529 14.4224 46.0529ZM34.2258 47.5578C36.9132 47.5578 38.9735 48.1431 40.4068 49.3136C41.8401 50.4841 42.5567 52.2638 42.5567 54.6526V68H38.7406L37.6836 65.2768H37.5403C36.9669 65.9934 36.3817 66.5787 35.7845 67.0325C35.1873 67.4864 34.5005 67.8208 33.7241 68.0358C32.9478 68.2508 32.0042 68.3583 30.8934 68.3583C29.711 68.3583 28.6479 68.1314 27.7044 67.6775C26.7727 67.2236 26.0382 66.5309 25.5007 65.5993C24.9632 64.6557 24.6945 63.4613 24.6945 62.0161C24.6945 59.89 25.441 58.3254 26.934 57.3221C28.427 56.3068 30.6665 55.7454 33.6525 55.638L37.1282 55.5305V54.6526C37.1282 53.6015 36.8535 52.8311 36.304 52.3414C35.7546 51.8517 34.9902 51.6069 34.0108 51.6069C33.0433 51.6069 32.0938 51.7442 31.1622 52.0189C30.2305 52.2936 29.2989 52.64 28.3673 53.058L26.5577 49.3673C27.6208 48.806 28.8092 48.3641 30.123 48.0416C31.4488 47.7191 32.8164 47.5578 34.2258 47.5578ZM37.1282 58.7195L35.0141 58.7912C33.2464 58.8389 32.0161 59.1555 31.3234 59.7407C30.6426 60.326 30.3022 61.0964 30.3022 62.0519C30.3022 62.888 30.547 63.4852 31.0367 63.8435C31.5264 64.1899 32.1654 64.363 32.9538 64.363C34.1243 64.363 35.1096 64.0167 35.9099 63.3239C36.7221 62.6312 37.1282 61.6458 37.1282 60.3678V58.7195ZM59.1353 47.5937C59.41 47.5937 59.7265 47.6116 60.0848 47.6474C60.4551 47.6713 60.7537 47.7071 60.9806 47.7549L60.5685 52.8789C60.3894 52.8192 60.1326 52.7774 59.7981 52.7535C59.4757 52.7176 59.195 52.6997 58.9561 52.6997C58.2514 52.6997 57.5646 52.7893 56.8958 52.9685C56.2388 53.1476 55.6476 53.4403 55.1221 53.8464C54.5965 54.2405 54.1785 54.766 53.8679 55.423C53.5693 56.0679 53.42 56.8622 53.42 57.8058V68H47.9557V47.9699H52.0943L52.9005 51.3381H53.1692C53.5634 50.6573 54.0531 50.0362 54.6383 49.4748C55.2355 48.9015 55.9104 48.4477 56.6628 48.1132C57.4273 47.7669 58.2514 47.5937 59.1353 47.5937Z" fill="#613EEA"/>
<path d="M89.5511 60.7261C89.5511 62.2788 89.1749 63.6285 88.4224 64.7751C87.67 65.9217 86.5711 66.8056 85.1259 67.4267C83.6926 68.0478 81.9488 68.3583 79.8944 68.3583C78.9867 68.3583 78.0968 68.2986 77.2249 68.1792C76.365 68.0597 75.5349 67.8865 74.7346 67.6596C73.9463 67.4207 73.1938 67.1281 72.4772 66.7817V61.6219C73.7194 62.1713 75.0093 62.667 76.347 63.1089C77.6848 63.5509 79.0106 63.7718 80.3244 63.7718C81.2321 63.7718 81.9607 63.6524 82.5102 63.4135C83.0715 63.1746 83.4776 62.8462 83.7284 62.4281C83.9793 62.0101 84.1047 61.5323 84.1047 60.9948C84.1047 60.3379 83.8837 59.7766 83.4418 59.3107C82.9999 58.8449 82.3907 58.409 81.6144 58.0029C80.8499 57.5968 79.984 57.1608 79.0165 56.695C78.4074 56.4083 77.7445 56.062 77.0279 55.6559C76.3112 55.2378 75.6304 54.7302 74.9854 54.133C74.3405 53.5358 73.8089 52.8132 73.3909 51.9652C72.9848 51.1052 72.7818 50.078 72.7818 48.8836C72.7818 47.319 73.1401 45.9812 73.8567 44.8704C74.5734 43.7596 75.5946 42.9116 76.9204 42.3264C78.2581 41.7292 79.8347 41.4306 81.6502 41.4306C83.0118 41.4306 84.3077 41.5918 85.538 41.9143C86.7801 42.2248 88.0761 42.6787 89.4257 43.2759L87.6341 47.5937C86.4278 47.104 85.3469 46.7277 84.3913 46.465C83.4358 46.1902 82.4624 46.0529 81.471 46.0529C80.7783 46.0529 80.187 46.1664 79.6973 46.3933C79.2076 46.6083 78.8374 46.9188 78.5865 47.3249C78.3357 47.7191 78.2103 48.1789 78.2103 48.7045C78.2103 49.3255 78.3895 49.8511 78.7478 50.2811C79.1181 50.6991 79.6675 51.1052 80.3961 51.4994C81.1366 51.8935 82.0563 52.3534 83.1551 52.8789C84.4929 53.5119 85.6335 54.1748 86.5771 54.8676C87.5326 55.5484 88.2672 56.3546 88.7808 57.2862C89.2944 58.2059 89.5511 59.3525 89.5511 60.7261ZM117.829 54.8676C117.829 56.8861 117.578 58.7255 117.076 60.3857C116.575 62.034 115.81 63.4553 114.783 64.6497C113.768 65.8441 112.478 66.7638 110.913 67.4088C109.349 68.0418 107.497 68.3583 105.359 68.3583C103.221 68.3583 101.37 68.0418 99.8053 67.4088C98.2407 66.7638 96.9447 65.8441 95.9175 64.6497C94.9023 63.4553 94.1439 62.028 93.6422 60.3678C93.1406 58.7076 92.8897 56.8622 92.8897 54.8317C92.8897 52.1204 93.3317 49.7615 94.2155 47.7549C95.1113 45.7364 96.4849 44.1717 98.3362 43.0609C100.188 41.9501 102.54 41.3947 105.395 41.3947C108.238 41.3947 110.573 41.9501 112.4 43.0609C114.24 44.1717 115.601 45.7364 116.485 47.7549C117.381 49.7734 117.829 52.1443 117.829 54.8676ZM98.7124 54.8676C98.7124 56.695 98.9394 58.2716 99.3933 59.5974C99.8591 60.9112 100.582 61.9265 101.561 62.6431C102.54 63.3478 103.807 63.7002 105.359 63.7002C106.936 63.7002 108.214 63.3478 109.193 62.6431C110.173 61.9265 110.883 60.9112 111.325 59.5974C111.779 58.2716 112.006 56.695 112.006 54.8676C112.006 52.1204 111.493 49.9586 110.465 48.382C109.438 46.8054 107.748 46.0171 105.395 46.0171C103.83 46.0171 102.552 46.3754 101.561 47.092C100.582 47.7967 99.8591 48.812 99.3933 50.1377C98.9394 51.4516 98.7124 53.0282 98.7124 54.8676ZM138.474 60.7261C138.474 62.2788 138.098 63.6285 137.346 64.7751C136.593 65.9217 135.494 66.8056 134.049 67.4267C132.616 68.0478 130.872 68.3583 128.818 68.3583C127.91 68.3583 127.02 68.2986 126.148 68.1792C125.288 68.0597 124.458 67.8865 123.658 67.6596C122.869 67.4207 122.117 67.1281 121.4 66.7817V61.6219C122.642 62.1713 123.932 62.667 125.27 63.1089C126.608 63.5509 127.934 63.7718 129.248 63.7718C130.155 63.7718 130.884 63.6524 131.433 63.4135C131.995 63.1746 132.401 62.8462 132.652 62.4281C132.902 62.0101 133.028 61.5323 133.028 60.9948C133.028 60.3379 132.807 59.7766 132.365 59.3107C131.923 58.8449 131.314 58.409 130.537 58.0029C129.773 57.5968 128.907 57.1608 127.94 56.695C127.331 56.4083 126.668 56.062 125.951 55.6559C125.234 55.2378 124.554 54.7302 123.909 54.133C123.264 53.5358 122.732 52.8132 122.314 51.9652C121.908 51.1052 121.705 50.078 121.705 48.8836C121.705 47.319 122.063 45.9812 122.78 44.8704C123.496 43.7596 124.518 42.9116 125.843 42.3264C127.181 41.7292 128.758 41.4306 130.573 41.4306C131.935 41.4306 133.231 41.5918 134.461 41.9143C135.703 42.2248 136.999 42.6787 138.349 43.2759L136.557 47.5937C135.351 47.104 134.27 46.7277 133.314 46.465C132.359 46.1902 131.386 46.0529 130.394 46.0529C129.701 46.0529 129.11 46.1664 128.62 46.3933C128.131 46.6083 127.761 46.9188 127.51 47.3249C127.259 47.7191 127.133 48.1789 127.133 48.7045C127.133 49.3255 127.313 49.8511 127.671 50.2811C128.041 50.6991 128.591 51.1052 129.319 51.4994C130.06 51.8935 130.979 52.3534 132.078 52.8789C133.416 53.5119 134.557 54.1748 135.5 54.8676C136.456 55.5484 137.19 56.3546 137.704 57.2862C138.217 58.2059 138.474 59.3525 138.474 60.7261Z" fill="white"/>
</svg>
